<?xml version="1.0" standalone="no"?>
<!DOCTYPE svg PUBLIC "-//W3C//DTD SVG 20010904//EN"
 "http://www.w3.org/TR/2001/REC-SVG-20010904/DTD/svg10.dtd">
<svg version="1.0" xmlns="http://www.w3.org/2000/svg"
 width="500.000000pt" height="500.000000pt" viewBox="0 0 500.000000 500.000000"
 preserveAspectRatio="xMidYMid meet">

<g transform="translate(0.000000,500.000000) scale(0.100000,-0.100000)"
fill="#000000" stroke="none">
<path d="M0 2500 l0 -2500 2500 0 2500 0 0 2500 0 2500 -2500 0 -2500 0 0
-2500z m1940 615 c19 -58 37 -102 41 -98 3 5 21 52 39 106 l32 97 49 0 49 0 0
-155 0 -155 -35 0 -35 0 -1 103 -1 102 -35 -102 c-33 -98 -36 -103 -63 -103
-26 0 -30 6 -58 83 -16 45 -32 89 -35 97 -3 8 -6 -29 -6 -82 l-1 -98 -35 0
-35 0 0 155 0 155 48 0 48 0 34 -105z m474 84 c14 -11 33 -34 41 -50 l16 -29
-34 0 c-21 0 -41 8 -52 20 -20 22 -65 26 -95 10 -44 -24 -44 -146 0 -170 30
-16 75 -12 95 10 10 11 31 20 47 20 40 0 37 -30 -7 -69 -31 -27 -43 -31 -94
-31 -92 0 -141 52 -141 150 0 105 50 160 146 160 37 0 59 -6 78 -21z m146
-134 l0 -155 -30 0 -30 0 0 155 0 155 30 0 30 0 0 -155z m770 0 l0 -155 -24 0
c-14 0 -28 5 -31 10 -4 7 -12 7 -25 0 -28 -15 -83 -12 -107 5 -48 33 -54 136
-12 189 26 33 80 44 114 22 l25 -16 0 50 c0 49 1 50 30 50 l30 0 0 -155z
m-545 61 c56 -37 55 -151 -2 -195 -37 -30 -113 -29 -149 2 -23 20 -28 34 -32
83 -3 50 0 63 18 87 13 16 32 33 44 38 29 12 91 4 121 -15z m135 -57 c0 -78
11 -109 40 -109 33 0 50 38 50 112 l0 68 30 0 30 0 0 -115 0 -115 -30 0 c-16
0 -30 5 -30 10 0 7 -6 7 -19 0 -37 -19 -88 -12 -110 16 -18 23 -21 41 -21 115
l0 89 30 0 30 0 0 -71z m328 -266 c-412 -2 -1084 -2 -1495 0 -412 1 -75 2 747
2 822 0 1159 -1 748 -2z m-2278 -17 c0 -2 -8 -10 -17 -17 -16 -13 -17 -12 -4
4 13 16 21 21 21 13z m3081 -13 c13 -16 12 -17 -3 -4 -17 13 -22 21 -14 21 2
0 10 -8 17 -17z m-2876 -148 l0 -50 -37 -3 -38 -3 0 56 0 56 38 -3 37 -3 0
-50z m108 0 c20 -54 18 -62 -12 -43 -17 10 -25 10 -41 0 -36 -22 -36 -12 -4
66 18 44 35 37 57 -23z m57 23 c0 -42 13 -63 34 -55 11 4 16 19 16 47 0 22 5
40 10 40 14 0 12 -84 -2 -98 -7 -7 -21 -12 -33 -12 -12 0 -26 5 -33 12 -14 14
-16 98 -2 98 6 0 10 -15 10 -32z m180 22 c0 -5 -13 -10 -30 -10 -16 0 -30 -4
-30 -10 0 -5 11 -10 25 -10 31 0 33 -17 3 -22 -30 -4 -25 -22 7 -26 40 -5 29
-22 -15 -22 l-40 0 0 55 0 55 40 0 c22 0 40 -4 40 -10z m148 -2 c17 -17 15
-64 -4 -82 -8 -9 -29 -16 -45 -16 -29 0 -29 1 -29 55 l0 55 33 0 c18 0 38 -5
45 -12z m62 -43 c0 -30 -4 -55 -10 -55 -5 0 -10 25 -10 55 0 30 5 55 10 55 6
0 10 -25 10 -55z m105 10 c0 -22 4 -46 8 -52 5 -9 3 -13 -7 -13 -8 0 -20 9
-26 20 -6 11 -15 20 -20 20 -6 0 -10 -9 -10 -20 0 -11 -4 -20 -10 -20 -5 0
-10 25 -10 56 l0 55 38 -3 c36 -3 37 -4 37 -43z m163 33 c17 -17 15 -64 -4
-82 -8 -9 -29 -16 -45 -16 -29 0 -29 1 -29 55 l0 55 33 0 c18 0 38 -5 45 -12z
m112 2 c0 -5 -11 -10 -25 -10 -14 0 -25 -4 -25 -10 0 -5 11 -10 25 -10 14 0
25 -4 25 -10 0 -5 -11 -10 -25 -10 -16 0 -25 -6 -25 -15 0 -10 10 -15 30 -15
17 0 30 -4 30 -10 0 -5 -18 -10 -40 -10 l-40 0 0 55 0 55 35 0 c19 0 35 -4 35
-10z m50 -45 c0 -30 -4 -55 -10 -55 -5 0 -10 25 -10 55 0 30 5 55 10 55 6 0
10 -25 10 -55z m79 23 l21 -33 0 33 c0 22 5 32 15 32 12 0 15 -13 15 -55 0
-65 -17 -73 -49 -22 l-21 32 0 -32 c0 -23 -5 -33 -15 -33 -12 0 -15 13 -15 55
0 65 17 73 49 23z m201 22 c0 -5 -11 -10 -25 -10 -14 0 -25 -4 -25 -10 0 -5
11 -10 25 -10 14 0 25 -4 25 -10 0 -5 -11 -10 -25 -10 -16 0 -25 -6 -25 -15 0
-10 10 -15 30 -15 17 0 30 -4 30 -10 0 -5 -18 -10 -40 -10 l-40 0 0 55 0 55
35 0 c19 0 35 -4 35 -10z m50 -45 c0 -30 -4 -55 -10 -55 -5 0 -10 25 -10 55 0
30 5 55 10 55 6 0 10 -25 10 -55z m120 40 c17 -21 7 -29 -18 -14 -27 17 -54 4
-50 -22 3 -25 33 -48 45 -35 4 5 2 11 -4 13 -22 8 -14 23 12 23 21 0 25 -5 25
-28 0 -26 -4 -28 -39 -30 -24 -2 -43 3 -51 13 -16 19 -16 61 0 80 16 19 64 19
80 0z m120 5 c0 -5 -11 -10 -25 -10 -14 0 -25 -4 -25 -10 0 -5 9 -10 20 -10
11 0 20 -4 20 -10 0 -5 -9 -10 -20 -10 -11 0 -20 -7 -20 -15 0 -9 9 -15 25
-15 14 0 25 -4 25 -10 0 -5 -18 -10 -40 -10 l-40 0 0 55 0 55 40 0 c22 0 40
-4 40 -10z m72 -22 l27 -33 1 33 c0 17 5 32 10 32 6 0 10 -25 10 -55 0 -64
-15 -72 -45 -22 l-20 32 -3 -32 c-5 -54 -22 -37 -22 22 0 30 3 55 8 55 4 0 19
-14 34 -32z m158 22 c0 -5 -13 -10 -30 -10 -16 0 -30 -4 -30 -10 0 -5 11 -10
25 -10 31 0 33 -17 3 -22 -35 -5 -34 -28 1 -28 17 0 31 -4 31 -10 0 -5 -18
-10 -40 -10 l-40 0 0 55 0 55 40 0 c22 0 40 -4 40 -10z m94 -6 c5 -13 1 -14
-24 -9 -39 8 -38 0 1 -20 42 -22 38 -59 -9 -63 -22 -2 -34 2 -38 13 -8 21 3
32 18 17 15 -15 28 -15 28 -2 0 6 -11 15 -25 20 -24 9 -34 38 -18 53 13 13 61
7 67 -9z m152 5 c13 -21 14 -83 1 -91 -7 -4 -27 -8 -44 -8 l-33 0 0 55 0 55
34 0 c19 0 38 -5 42 -11z m114 1 c0 -5 -11 -10 -25 -10 -14 0 -25 -4 -25 -10
0 -5 9 -10 19 -10 11 0 23 -4 26 -10 4 -6 -5 -10 -19 -10 -16 0 -26 -6 -26
-15 0 -9 9 -15 25 -15 14 0 25 -4 25 -10 0 -5 -18 -10 -40 -10 l-40 0 0 55 0
55 40 0 c22 0 40 -4 40 -10z m102 -7 c37 -33 10 -93 -44 -93 -27 0 -28 1 -28
55 0 53 1 55 27 55 14 0 35 -7 45 -17z m119 1 c10 -12 10 -20 1 -35 -9 -14
-10 -25 -2 -39 16 -29 -13 -27 -33 3 l-16 22 0 -22 c-1 -14 -7 -23 -16 -23
-12 0 -15 13 -15 55 l0 55 34 0 c18 0 39 -7 47 -16z m121 -1 c22 -20 23 -42 2
-71 -18 -26 -56 -29 -78 -6 -19 18 -21 65 -4 82 17 17 58 15 80 -5z m128 2
c17 -21 7 -29 -18 -14 -25 15 -52 5 -52 -19 0 -31 24 -46 49 -30 25 15 39 4
21 -17 -16 -19 -64 -19 -80 0 -7 8 -12 26 -12 40 0 14 5 32 12 40 16 19 64 19
80 0z m60 -7 l0 -22 16 22 c8 12 22 22 30 22 12 0 11 -5 -5 -26 l-21 -26 21
-26 c14 -19 17 -28 8 -31 -6 -2 -20 7 -30 20 l-19 24 0 -22 c0 -13 -4 -23 -10
-23 -5 0 -10 25 -10 55 0 30 5 55 10 55 6 0 10 -10 10 -22z m-2963 -10 c-3 -8
-6 -5 -6 6 -1 11 2 17 5 13 3 -3 4 -12 1 -19z m3230 0 c-3 -8 -6 -5 -6 6 -1
11 2 17 5 13 3 -3 4 -12 1 -19z m10 -55 c-3 -10 -5 -4 -5 12 0 17 2 24 5 18 2
-7 2 -21 0 -30z m-3250 5 c-3 -8 -6 -5 -6 6 -1 11 2 17 5 13 3 -3 4 -12 1 -19z
m1042 -170 l21 -33 0 33 c0 22 5 32 15 32 12 0 15 -13 15 -55 0 -65 -17 -73
-49 -22 l-21 32 0 -32 c0 -23 -5 -33 -15 -33 -12 0 -15 13 -15 55 0 65 17 73
49 23z m161 22 c0 -5 -13 -10 -30 -10 -16 0 -30 -4 -30 -10 0 -5 11 -10 25
-10 31 0 33 -17 3 -22 -35 -5 -34 -28 1 -28 17 0 31 -4 31 -10 0 -5 -18 -10
-40 -10 l-40 0 0 55 0 55 40 0 c22 0 40 -4 40 -10z m100 0 c0 -5 -7 -10 -15
-10 -11 0 -15 -12 -15 -45 0 -33 -4 -45 -15 -45 -11 0 -15 12 -15 45 0 33 -4
45 -15 45 -8 0 -15 5 -15 10 0 6 20 10 45 10 25 0 45 -4 45 -10z m100 3 c0 -3
-11 -21 -25 -39 -14 -18 -25 -35 -25 -38 0 -3 11 -6 25 -6 14 0 25 -4 25 -10
0 -5 -20 -10 -45 -10 -25 0 -45 3 -45 7 0 3 11 21 25 39 30 39 31 44 5 44 -11
0 -20 5 -20 10 0 6 18 10 40 10 22 0 40 -3 40 -7z m47 -25 l11 -33 7 33 c4 17
13 32 20 32 7 0 16 -15 20 -32 l7 -33 11 33 c5 17 15 32 22 32 9 0 8 -14 -4
-55 -18 -62 -36 -71 -47 -22 l-7 32 -10 -32 c-6 -18 -16 -33 -23 -33 -8 0 -14
3 -14 8 0 4 -7 28 -15 55 -11 38 -12 47 -1 47 7 0 18 -15 23 -32z m213 22 c0
-5 -13 -10 -30 -10 -16 0 -30 -4 -30 -10 0 -5 11 -10 25 -10 31 0 33 -17 3
-22 -35 -5 -34 -28 1 -28 17 0 31 -4 31 -10 0 -5 -18 -10 -40 -10 l-40 0 0 55
0 55 40 0 c22 0 40 -4 40 -10z m95 -35 c0 -22 4 -46 8 -52 5 -9 3 -13 -7 -13
-8 0 -20 9 -26 20 -6 11 -15 20 -20 20 -6 0 -10 -9 -10 -20 0 -11 -4 -20 -10
-20 -5 0 -10 25 -10 56 l0 55 38 -3 c36 -3 37 -4 37 -43z m55 23 l1 -23 18 23
c27 32 48 29 26 -4 -16 -25 -16 -28 4 -55 26 -35 8 -39 -26 -7 l-23 21 0 -21
c0 -12 -4 -22 -10 -22 -5 0 -10 25 -10 55 0 30 5 55 10 55 6 0 10 -10 10 -22z
m211 -33 c23 -60 22 -55 4 -55 -8 0 -15 5 -15 10 0 15 -48 12 -53 -2 -2 -7 -8
-10 -12 -6 -4 4 1 30 10 58 21 64 40 63 66 -5z m61 13 c2 -30 8 -43 18 -43 10
0 16 13 18 43 4 54 32 60 32 6 0 -52 -15 -74 -51 -74 -33 0 -49 27 -49 81 0
48 28 37 32 -13z m168 32 c0 -5 -11 -10 -25 -10 -16 0 -25 -6 -25 -15 0 -9 10
-15 26 -15 14 0 23 -4 19 -10 -3 -5 -15 -10 -26 -10 -12 0 -19 -7 -19 -20 0
-11 -4 -20 -10 -20 -5 0 -10 25 -10 55 l0 55 35 0 c19 0 35 -4 35 -10z m-2253
-62 c-3 -7 -5 -2 -5 12 0 14 2 19 5 13 2 -7 2 -19 0 -25z m3250 -10 c-3 -7 -5
-2 -5 12 0 14 2 19 5 13 2 -7 2 -19 0 -25z m-10 -40 c-3 -8 -6 -5 -6 6 -1 11
2 17 5 13 3 -3 4 -12 1 -19z m-20 -55 c-8 -15 -28 -39 -43 -53 -27 -23 -26
-23 3 12 17 20 34 46 38 58 4 12 9 19 12 17 2 -3 -2 -18 -10 -34z m-3153 -43
c11 -14 6 -11 -11 7 -18 18 -33 38 -33 45 0 7 6 4 12 -7 6 -11 20 -31 32 -45z
m2309 -47 c-409 -2 -1077 -2 -1485 0 -409 1 -75 2 742 2 817 0 1151 -1 743 -2z
m-950 -284 c111 -61 204 -113 206 -114 2 -2 -51 -31 -118 -64 -67 -34 -121
-66 -121 -73 0 -6 48 -104 107 -217 l106 -206 -49 -93 c-27 -51 -52 -95 -55
-97 -5 -4 -548 288 -616 331 -21 13 -19 18 150 329 95 173 176 315 180 315 5
0 99 -50 210 -111z"/>
<path d="M3181 3076 c-7 -8 -11 -34 -9 -58 3 -37 7 -44 32 -53 24 -8 31 -6 47
14 23 28 25 74 3 95 -19 20 -58 21 -73 2z"/>
<path d="M2676 3074 c-20 -20 -20 -63 0 -92 31 -45 84 -16 84 47 0 20 -5 42
-12 49 -17 17 -54 15 -72 -4z"/>
<path d="M1120 2650 c0 -5 7 -10 15 -10 8 0 15 5 15 10 0 6 -7 10 -15 10 -8 0
-15 -4 -15 -10z"/>
<path d="M1120 2605 c0 -8 9 -15 20 -15 11 0 20 7 20 15 0 8 -9 15 -20 15 -11
0 -20 -7 -20 -15z"/>
<path d="M1240 2626 c0 -9 5 -16 10 -16 6 0 10 4 10 9 0 6 -4 13 -10 16 -5 3
-10 -1 -10 -9z"/>
<path d="M1610 2631 c0 -37 17 -49 38 -27 19 19 7 49 -22 54 -12 3 -16 -4 -16
-27z"/>
<path d="M1782 2648 c7 -19 38 -22 38 -4 0 10 -9 16 -21 16 -12 0 -19 -5 -17
-12z"/>
<path d="M1940 2631 c0 -37 17 -49 38 -27 19 19 7 49 -22 54 -12 3 -16 -4 -16
-27z"/>
<path d="M3160 2650 c0 -5 7 -10 15 -10 8 0 15 5 15 10 0 6 -7 10 -15 10 -8 0
-15 -4 -15 -10z"/>
<path d="M3160 2605 c0 -10 7 -15 18 -13 21 4 19 22 -2 26 -10 2 -16 -3 -16
-13z"/>
<path d="M3370 2626 c0 -37 5 -42 28 -27 19 12 11 55 -10 59 -15 3 -18 -4 -18
-32z"/>
<path d="M3490 2645 c0 -8 7 -15 15 -15 8 0 15 7 15 15 0 8 -7 15 -15 15 -8 0
-15 -7 -15 -15z"/>
<path d="M3600 2645 c-17 -21 -2 -50 26 -50 14 0 19 7 19 30 0 34 -24 45 -45
20z"/>
<path d="M2582 2428 c7 -19 38 -22 38 -4 0 10 -9 16 -21 16 -12 0 -19 -5 -17
-12z"/>
<path d="M2860 2410 c0 -5 5 -10 11 -10 5 0 7 5 4 10 -3 6 -8 10 -11 10 -2 0
-4 -4 -4 -10z"/>
</g>
</svg>
